<?xml version="1.0" encoding="UTF-8" standalone="no"?>
<svg width="100%" height="100%" viewBox="0 0 723 702" version="1.1" xmlns="http://www.w3.org/2000/svg" xmlns:xlink="http://www.w3.org/1999/xlink" xml:space="preserve"  style="fill-rule:evenodd;clip-rule:evenodd;stroke-linejoin:round;stroke-miterlimit:2;">
    <g id="Layer-1"  transform="matrix(1,0,0,1,-6.326094,-174.7524)">
        <g id="g3052">
            <g transform="matrix(1.03303,0,0,1.093374,155.326094,288.075875)">
                <path d="M413.347,386.835L404.078,356.404L404.078,322.684L9.051,322.684L9.051,357.116L0,386.835L413.347,386.835Z" style="fill:white;fill-rule:nonzero;"/>
                <path d="M382.826,260.178L382.945,260.178L382.945,260.176C382.945,168.704 313.287,93.505 224.124,84.719L224.124,61.511L244.933,61.511L244.933,26.511L168.316,26.511L168.316,61.511L189.125,61.511L189.125,84.719C100.508,93.451 31.17,167.789 30.325,258.501L30.304,258.501L30.304,293.501L382.827,293.501L382.827,260.178L382.826,260.178Z" style="fill:white;fill-rule:nonzero;"/>
            </g>
        </g>
    </g>
</svg>