<?xml version="1.0" encoding="UTF-8" standalone="no"?>
<svg width="100%" height="100%" viewBox="0 0 723 702" version="1.1" xmlns="http://www.w3.org/2000/svg" xmlns:xlink="http://www.w3.org/1999/xlink" xml:space="preserve"  style="fill-rule:evenodd;clip-rule:evenodd;stroke-linejoin:round;stroke-miterlimit:2;">
    <g id="Layer-1" transform="matrix(1,0,0,1,-6.326094,-174.7524)">
        <g id="g3052">
            <path id="path3055" d="M365.312,184.812C359.099,185.125 353.011,186.666 347.406,189.344L103.062,306.094C90.26,312.208 80.944,323.792 77.781,337.531L17.5,599.781C14.689,611.984 16.979,624.81 23.844,635.312C24.668,636.584 25.554,637.815 26.5,639L195.625,849.281C204.487,860.296 217.948,866.722 232.156,866.719L503.375,866.656C517.578,866.667 531.038,860.253 539.906,849.25L708.969,638.938C717.836,627.917 721.164,613.465 718,599.719L657.625,337.469C654.462,323.729 645.146,312.145 632.344,306.031L387.969,189.344C380.919,185.976 373.128,184.417 365.312,184.812Z" style="fill:rgb(50,108,229);fill-rule:nonzero;"/>
        </g>
    </g>
</svg>