<?xml version="1.0" encoding="UTF-8"?>
<!DOCTYPE svg PUBLIC "-//W3C//DTD SVG 1.1//EN" "http://www.w3.org/Graphics/SVG/1.1/DTD/svg11.dtd">
<svg xmlns="http://www.w3.org/2000/svg" version="1.1" width="617px" height="600px" style="shape-rendering:geometricPrecision; text-rendering:geometricPrecision; image-rendering:optimizeQuality; fill-rule:evenodd; clip-rule:evenodd" xmlns:xlink="http://www.w3.org/1999/xlink">
<g><path style="opacity:0.998" fill="#326ce5" d="M 301.5,7.5 C 312.163,6.66582 322.163,8.83248 331.5,14C 402.017,47.7596 472.351,81.7596 542.5,116C 548.263,121.095 552.429,127.261 555,134.5C 573.628,213.343 591.461,292.343 608.5,371.5C 608.384,381.309 605.217,389.976 599,397.5C 550.62,456.878 502.62,516.544 455,576.5C 449.74,582.55 443.24,586.716 435.5,589C 393.037,590.153 350.537,590.653 308,590.5C 267.167,590.333 226.333,590.167 185.5,590C 175.799,588.234 167.632,583.734 161,576.5C 113.38,516.544 65.3795,456.878 17,397.5C 8.1995,386.166 5.53283,373.499 9,359.5C 26.3526,283.423 44.0193,207.423 62,131.5C 66.1106,122.39 72.6106,115.556 81.5,111C 149.288,78.9394 216.955,46.6061 284.5,14C 290.058,11.2074 295.725,9.04075 301.5,7.5 Z"/></g>
<g><path style="opacity:1" fill="#f8f9fd" d="M 325.5,195.5 C 325.672,196.492 325.338,197.158 324.5,197.5C 319.002,194.585 313.335,191.919 307.5,189.5C 301.712,192.228 296.045,195.228 290.5,198.5C 290.167,198.167 289.833,197.833 289.5,197.5C 291.225,190.924 292.059,184.258 292,177.5C 287.651,173.318 283.485,168.985 279.5,164.5C 285.701,162.689 292.034,161.522 298.5,161C 301.54,155.087 304.706,149.253 308,143.5C 311.294,149.253 314.46,155.087 317.5,161C 323.838,162.167 330.171,163.334 336.5,164.5C 332.515,168.985 328.349,173.318 324,177.5C 324.071,183.51 324.571,189.51 325.5,195.5 Z"/></g>
<g><path style="opacity:1" fill="#fafbfd" d="M 214.5,216.5 C 212.167,215.833 209.833,215.167 207.5,214.5C 211.497,210.335 215.33,206.002 219,201.5C 218.42,194.432 217.42,187.432 216,180.5C 221.69,183.453 227.523,186.12 233.5,188.5C 239.105,185.2 244.771,182.2 250.5,179.5C 250.179,185.849 250.013,192.182 250,198.5C 253.885,202.52 258.052,206.186 262.5,209.5C 263.521,210.002 263.688,210.668 263,211.5C 257.264,213.367 251.431,214.867 245.5,216C 242.467,222.111 239.633,228.278 237,234.5C 233.634,229.297 230.468,223.964 227.5,218.5C 223.345,216.815 219.012,216.149 214.5,216.5 Z"/></g>
<g><path style="opacity:1" fill="#fafbfd" d="M 389.5,177.5 C 390.652,183.98 391.485,190.646 392,197.5C 397.585,201.377 403.418,204.877 409.5,208C 402.779,210.447 396.279,213.28 390,216.5C 389.05,222.914 387.717,229.248 386,235.5C 381.833,230.667 377.667,225.833 373.5,221C 366.811,221.291 360.145,221.124 353.5,220.5C 356.833,215.167 360.167,209.833 363.5,204.5C 361.068,198.641 358.402,192.974 355.5,187.5C 360.577,187.117 365.577,187.95 370.5,190C 372.5,190.667 374.5,190.667 376.5,190C 380.729,185.602 385.062,181.436 389.5,177.5 Z"/></g>
<g><path style="opacity:1" fill="#99b5f1" d="M 325.5,195.5 C 326.776,196.386 326.776,197.386 325.5,198.5C 324.893,198.376 324.56,198.043 324.5,197.5C 325.338,197.158 325.672,196.492 325.5,195.5 Z"/></g>
<g><path style="opacity:1" fill="#b1c5f4" d="M 207.5,214.5 C 209.833,215.167 212.167,215.833 214.5,216.5C 211.753,216.813 209.086,216.48 206.5,215.5C 206.624,214.893 206.957,214.56 207.5,214.5 Z"/></g>
<g><path style="opacity:1" fill="#f9fafd" d="M 420.5,242.5 C 421.376,242.369 422.043,242.702 422.5,243.5C 425.038,249.408 427.705,255.242 430.5,261C 436.848,262.416 443.181,263.749 449.5,265C 445.301,269.534 440.801,273.701 436,277.5C 435.311,283.272 435.811,288.938 437.5,294.5C 437.167,295.833 436.833,297.167 436.5,298.5C 431.083,295.041 425.583,291.708 420,288.5C 413.963,291.102 408.13,294.102 402.5,297.5C 402.167,297.167 401.833,296.833 401.5,296.5C 403.28,290.433 404.613,284.267 405.5,278C 401.213,272.711 396.546,267.711 391.5,263C 398.562,262.158 405.562,260.991 412.5,259.5C 415.473,253.891 418.14,248.224 420.5,242.5 Z"/></g>
<g><path style="opacity:1" fill="#f9fafd" d="M 195.5,243.5 C 198.964,249.364 201.964,255.531 204.5,262C 210.889,263.211 217.222,264.544 223.5,266C 219.301,270.534 214.801,274.701 210,278.5C 210.041,284.004 210.541,289.504 211.5,295C 211.167,296.167 210.833,297.333 210.5,298.5C 205.064,295.366 199.564,292.366 194,289.5C 188.439,292.031 182.939,294.697 177.5,297.5C 177.167,296.167 176.833,294.833 176.5,293.5C 177.68,288.159 178.513,282.826 179,277.5C 175.182,272.715 171.015,268.215 166.5,264C 172.734,262.443 179.067,261.443 185.5,261C 188.986,255.189 192.319,249.355 195.5,243.5 Z"/></g>
<g><path style="opacity:1" fill="#f7f9fd" d="M 299.5,250.5 C 305.176,250.334 310.843,250.501 316.5,251C 318.49,252.751 320.823,253.751 323.5,254C 323.957,254.414 324.291,254.914 324.5,255.5C 325.517,263.306 322.517,268.806 315.5,272C 300.192,276.542 292.192,271.042 291.5,255.5C 294.341,254.122 297.008,252.455 299.5,250.5 Z"/></g>
<g><path style="opacity:1" fill="#fdfdfd" d="M 291.5,280.5 C 302.172,280.333 312.839,280.5 323.5,281C 324.416,281.374 325.25,281.874 326,282.5C 326.497,284.81 326.663,287.143 326.5,289.5C 377.891,296.054 409.058,324.72 420,375.5C 420.5,383.827 420.666,392.16 420.5,400.5C 430.057,401.905 436.891,406.905 441,415.5C 441.49,416.793 441.657,418.127 441.5,419.5C 352.5,419.5 263.5,419.5 174.5,419.5C 175.7,410.951 180.367,405.117 188.5,402C 190.74,401.023 193.073,400.523 195.5,400.5C 193.977,346.356 218.644,310.189 269.5,292C 276.028,290.058 282.695,289.225 289.5,289.5C 289.065,286.162 289.732,283.162 291.5,280.5 Z"/></g>
<g><path style="opacity:1" fill="#396fe5" d="M 272.5,300.5 C 273.675,300.281 274.675,300.614 275.5,301.5C 256.956,313.539 243.789,329.873 236,350.5C 233.528,359.581 230.861,368.581 228,377.5C 221.727,383.365 216.394,382.698 212,375.5C 216.118,344.776 231.618,321.609 258.5,306C 263.159,303.842 267.825,302.009 272.5,300.5 Z"/></g>
<g><path style="opacity:1" fill="#fcfdfd" d="M 171.5,428.5 C 262.167,428.333 352.834,428.5 443.5,429C 451.856,431.036 458.189,435.702 462.5,443C 470.927,444.28 472.594,448.28 467.5,455C 361.167,455.667 254.833,455.667 148.5,455C 143.402,448.335 145.069,444.335 153.5,443C 157.851,436.007 163.851,431.174 171.5,428.5 Z"/></g>
</svg>
